# xmcd
#
# Track frame offsets:
#	150
#	63327
#	85110
#	102615
#	118820
#	142750
#	176495
#	197125
#	212260
#	227442
#	241552
#	255357
#	271572
#	290220
#
# Disc length: 4293 seconds
#
# Revision: 1
# Processed by: cddbd v1.5.2PL0 Copyright (c) Steve Scherf et al.
# Submitted via: EZCDAudioConverter 3.1.0.1
#
DISCID=b710c30e
DTITLE=James Brown - Funky Men [Disky]
DYEAR=1997
DGENRE=R&B
TTITLE0=James Brown and The Jb's - Rapp Payback (Where Iz Moses-)
TTITLE1=James Brown and The Jb's - Honky Tonk
TTITLE2=The Jb's - Rock Groove Machine, Pt. 1
TTITLE3=Bobby Byrd - The Way to Get Down
TTITLE4=James Brown +Bobby Byrd and The Jb's - (Do the) Mashed Potatoes
TTITLE5=James Brown and The Jb's - Funky Men
TTITLE6=James Brown and The Jb's - Smokin' and Drinkin'
TTITLE7=Jb's Wedge - Bessie, Pt. 1
TTITLE8=The Jb's ft Maxxi - Just Wanna Make You Dance, Pt. 1
TTITLE9=Bobby Byrd - Headquarters (Augusta, GA)
TTITLE10=Bobby Byrd - Back from the Dead
TTITLE11=Jb's Internationals - Nature, Pts. 1 and 2
TTITLE12=James Brown and The Jb's - Stay With Me
TTITLE13=James Brown and The Jb's - Rapp Payback (Where Iz Moses-)
EXTD=
EXTT0=
EXTT1=
EXTT2=
EXTT3=
EXTT4=
EXTT5=
EXTT6=
EXTT7=
EXTT8=
EXTT9=
EXTT10=
EXTT11=
EXTT12=
EXTT13=
PLAYORDER=
